<?xml version="1.0" encoding="UTF-8"?>
<svg id="Layer_2" data-name="Layer 2" xmlns="http://www.w3.org/2000/svg" viewBox="0 0 1228.26 259.74">
  <defs>
    <style>
      .cls-1 {
        fill: #fff;
      }

      .cls-2, .cls-3 {
        fill: none;
        stroke: #fff;
        stroke-miterlimit: 10;
        stroke-width: 12.8px;
      }

      .cls-3 {
        opacity: .99;
      }
    </style>
  </defs>
  <g>
    <path class="cls-2" d="M65.72,200.55c13.36,7.64,41.54,21.39,79.86,22.69,37.48,1.27,66-10.01,79.86-16.59,1.06,2.37,2.32,5.78,3.08,10.03,0,0,1.31,7.37.24,13.64-1.92,11.26-37.25,23.67-83.18,22.73-48.6-.99-80.35-16.35-83.27-27.39-1.31-4.94-1-10.25-1-10.25.39-6.77,2.77-11.95,4.41-14.86Z"/>
    <path class="cls-2" d="M106.75,76c9.91,5.83,16.91,13.67,21.07,22.97"/>
    <path class="cls-2" d="M14.28,137.19c-14.17-27.92-1.61-56.43,28.57-68.88,9.3-3.84,20.79-4.64,32.36-2.93"/>
    <path class="cls-2" d="M23.37,134.49c5.66-24.31,21.26-26.17,29.1-26.28,5.1-.07,12.18.2,17.44,4.91,7.84,7.01,11.72,18.21,7.59,31.07-5.01,15.63-10.53,19.88-16.21,29.3-3.51,5.81-9.02,17.97,4.44,27.07"/>
    <path class="cls-2" d="M97.77,55.79c11.67-16.22,52.01-18.26,45.1,15.62-2.68,13.11-9.43,19.68-15.04,27.56-8.64,12.15-19.32,30.71-21.04,54.04-.78,10.48-1.75,25.99,5.54,44.06,4.57,11.33,10.72,19.5,15.17,24.59"/>
    <path class="cls-2" d="M83.46,56.06c.92-37.89,31.85-49.93,63.31-49.29,32.5.66,47.91,41.05,49.94,49,19.65,77.39,9.61,135.24-26.26,166.5"/>
    <path class="cls-2" d="M205.26,102c6.3-8.63,21.18-14.69,34.63-17.18,28.7-5.32,62.15,36.64,41.9,68.96"/>
    <path class="cls-2" d="M271.94,150.55c.76-20.47-11.29-24.49-25.31-22.6-10.81,1.46-18.61,17.49-14.31,33.15,5.12,18.68,4.29,38.9-6.87,45.54"/>
    <circle class="cls-3" cx="23.37" cy="151.13" r="16.64"/>
    <path class="cls-3" d="M75.21,65.38c2.29-6.46,8.45-11.08,15.69-11.08,9.19,0,16.64,7.45,16.64,16.64s-7.45,16.64-16.64,16.64-16.64-7.45-16.64-16.64c0-1.95.34-3.82.95-5.56"/>
    <circle class="cls-3" cx="271.94" cy="167.19" r="16.64"/>
  </g>
  <g>
    <path class="cls-1" d="M447.74,96.82l1.32-12.23h-.53l-3.78,9.86-13.11,22.97h-3.87l-13.82-23.06-3.87-9.77h-.44l1.76,12.14v32.03h-11.44v-61.6h11l16.46,28.16,2.9,7.04h.35l2.64-7.22,15.58-27.98h10.91v61.6h-12.06v-31.94Z"/>
    <path class="cls-1" d="M470.18,67.17h12.06v61.6h-12.06v-61.6Z"/>
    <path class="cls-1" d="M507.93,96.65l-4.84-9.68h-.44l1.41,9.68v32.12h-11.44v-62.04h8.8l23.32,32.82,4.66,9.42h.44l-1.41-9.42v-32.38h11.44v62.04h-8.8l-23.14-32.56Z"/>
    <path class="cls-1" d="M550.26,67.17h12.06v61.6h-12.06v-61.6Z"/>
    <path class="cls-1" d="M599.27,112.22c0-1.88-.69-3.4-2.07-4.58-1.38-1.17-3.11-2.24-5.19-3.21-2.08-.97-4.34-1.96-6.78-2.99-2.44-1.03-4.69-2.29-6.78-3.78-2.08-1.5-3.81-3.36-5.19-5.59-1.38-2.23-2.07-5.07-2.07-8.54,0-2.99.5-5.59,1.5-7.79,1-2.2,2.42-4.03,4.27-5.5,1.85-1.47,4.03-2.55,6.56-3.26s5.34-1.06,8.45-1.06c3.58,0,6.95.31,10.12.92,3.17.62,5.78,1.51,7.83,2.68l-3.78,10.12c-1.29-.82-3.23-1.57-5.81-2.24-2.58-.67-5.37-1.01-8.36-1.01-2.82,0-4.97.56-6.47,1.67-1.5,1.12-2.24,2.61-2.24,4.49,0,1.76.69,3.23,2.07,4.4,1.38,1.17,3.11,2.26,5.19,3.26,2.08,1,4.34,2.02,6.78,3.08,2.43,1.06,4.69,2.33,6.78,3.83,2.08,1.5,3.81,3.34,5.19,5.54,1.38,2.2,2.07,4.94,2.07,8.23s-.54,6.12-1.63,8.49c-1.09,2.38-2.61,4.36-4.58,5.94-1.97,1.58-4.34,2.76-7.13,3.52-2.79.76-5.85,1.14-9.2,1.14-4.4,0-8.27-.41-11.62-1.23-3.34-.82-5.81-1.64-7.39-2.46l3.87-10.3c.64.35,1.48.73,2.51,1.14,1.03.41,2.18.79,3.48,1.14,1.29.35,2.65.65,4.09.88,1.44.23,2.92.35,4.44.35,3.58,0,6.32-.6,8.23-1.8,1.91-1.2,2.86-3.04,2.86-5.5Z"/>
    <path class="cls-1" d="M661.66,77.9h-17.95v50.86h-12.06v-50.86h-18.04v-10.74h48.05v10.74Z"/>
    <path class="cls-1" d="M666.5,67.17h36.52v10.74h-24.46v14.34h22.26v10.74h-22.26v15.05h24.9v10.74h-36.96v-61.6Z"/>
    <path class="cls-1" d="M711.03,67.78c1.35-.23,2.8-.45,4.36-.66,1.55-.2,3.11-.37,4.66-.48,1.55-.12,3.07-.21,4.53-.26,1.47-.06,2.82-.09,4.05-.09,2.87,0,5.71.26,8.49.79,2.79.53,5.28,1.44,7.48,2.73,2.2,1.29,3.96,3.07,5.28,5.32,1.32,2.26,1.98,5.09,1.98,8.49,0,5.05-1.17,9.15-3.52,12.32-2.35,3.17-5.49,5.37-9.42,6.6l4.31,2.73,14.08,23.5h-13.9l-13.99-24.11-6.34-1.14v25.26h-12.06v-60.98ZM729.51,77.02c-1.23,0-2.45.03-3.65.09-1.2.06-2.13.18-2.77.35v17.86h5.1c3.34,0,6.01-.76,8.01-2.29,1.99-1.52,2.99-4.05,2.99-7.57,0-2.64-.82-4.71-2.46-6.2s-4.05-2.24-7.22-2.24Z"/>
    <path class="cls-1" d="M763.83,67.17h12.06v61.6h-12.06v-61.6Z"/>
    <path class="cls-1" d="M786.27,67.17h36.52v10.74h-24.46v14.34h22.26v10.74h-22.26v15.05h24.9v10.74h-36.96v-61.6Z"/>
    <path class="cls-1" d="M874.53,77.9h-17.95v50.86h-12.06v-50.86h-18.04v-10.74h48.05v10.74Z"/>
    <path class="cls-1" d="M896.71,67.17h36.52v10.74h-24.46v15.22h22.53v10.74h-22.53v24.9h-12.06v-61.6Z"/>
    <path class="cls-1" d="M938.07,97.97c0-10.27,2.26-18.17,6.78-23.72,4.52-5.54,10.97-8.32,19.36-8.32,4.4,0,8.24.76,11.53,2.29,3.29,1.53,6.01,3.7,8.18,6.51,2.17,2.82,3.78,6.19,4.84,10.12,1.06,3.93,1.58,8.3,1.58,13.11,0,10.27-2.27,18.17-6.82,23.72-4.55,5.54-10.99,8.32-19.32,8.32-4.46,0-8.33-.76-11.62-2.29-3.29-1.52-6-3.7-8.14-6.51s-3.74-6.19-4.8-10.12c-1.06-3.93-1.58-8.3-1.58-13.11ZM950.74,97.97c0,3.11.26,5.97.79,8.58.53,2.61,1.33,4.86,2.42,6.73,1.08,1.88,2.48,3.34,4.18,4.4,1.7,1.06,3.72,1.58,6.07,1.58,4.28,0,7.6-1.67,9.94-5.02,2.35-3.34,3.52-8.77,3.52-16.28,0-2.99-.25-5.78-.75-8.36-.5-2.58-1.28-4.84-2.33-6.78-1.06-1.94-2.44-3.45-4.14-4.53-1.7-1.08-3.78-1.63-6.25-1.63-4.28,0-7.6,1.72-9.94,5.15-2.35,3.43-3.52,8.82-3.52,16.15Z"/>
    <path class="cls-1" d="M997.55,67.78c1.35-.23,2.8-.45,4.36-.66,1.55-.2,3.11-.37,4.66-.48,1.55-.12,3.07-.21,4.53-.26,1.47-.06,2.82-.09,4.05-.09,2.87,0,5.71.26,8.49.79,2.79.53,5.28,1.44,7.48,2.73,2.2,1.29,3.96,3.07,5.28,5.32,1.32,2.26,1.98,5.09,1.98,8.49,0,5.05-1.17,9.15-3.52,12.32-2.35,3.17-5.49,5.37-9.42,6.6l4.31,2.73,14.08,23.5h-13.9l-13.99-24.11-6.34-1.14v25.26h-12.06v-60.98ZM1016.03,77.02c-1.23,0-2.45.03-3.65.09-1.2.06-2.13.18-2.77.35v17.86h5.1c3.34,0,6.01-.76,8.01-2.29,1.99-1.52,2.99-4.05,2.99-7.57,0-2.64-.82-4.71-2.46-6.2s-4.05-2.24-7.22-2.24Z"/>
    <path class="cls-1" d="M399.95,174.17h36.52v10.74h-24.46v15.22h22.53v10.74h-22.53v24.9h-12.06v-61.6Z"/>
    <path class="cls-1" d="M444.48,174.17h12.06v61.6h-12.06v-61.6Z"/>
    <path class="cls-1" d="M482.15,209.46h-3.17v26.31h-12.06v-61.6h12.06v27.28l2.82-1.23,16.98-26.05h13.73l-17.95,25.87-4.75,3.34,4.93,3.43,20.5,28.95h-14.87l-18.22-26.31Z"/>
    <path class="cls-1" d="M559.67,184.9h-17.95v50.86h-12.06v-50.86h-18.04v-10.74h48.05v10.74Z"/>
    <path class="cls-1" d="M565.74,174.17h12.06v61.6h-12.06v-61.6Z"/>
    <path class="cls-1" d="M608.42,210.34l1.58,10.47h.44l1.76-10.56,11.79-36.08h12.67l-22.88,62.04h-8.62l-23.06-62.04h13.99l12.32,36.17Z"/>
    <path class="cls-1" d="M639.75,174.17h36.52v10.74h-24.46v14.34h22.26v10.74h-22.26v15.05h24.9v10.74h-36.96v-61.6Z"/>
    <path class="cls-1" d="M720.36,209.46h-3.17v26.31h-12.06v-61.6h12.06v27.28l2.82-1.23,16.98-26.05h13.73l-17.95,25.87-4.75,3.34,4.93,3.43,20.5,28.95h-14.87l-18.22-26.31Z"/>
    <path class="cls-1" d="M786,222.13h-18.92l-4.66,13.64h-12.06l22.18-62.04h8.89l22.18,62.04h-12.67l-4.93-13.64ZM770.16,212.45h13.2l-4.58-13.73-1.85-9.68h-.44l-1.85,9.77-4.49,13.64Z"/>
    <path class="cls-1" d="M844.35,184.9h-17.95v50.86h-12.06v-50.86h-18.04v-10.74h48.05v10.74Z"/>
    <path class="cls-1" d="M872.69,222.13h-18.92l-4.66,13.64h-12.06l22.18-62.04h8.89l22.18,62.04h-12.67l-4.93-13.64ZM856.85,212.45h13.2l-4.58-13.73-1.85-9.68h-.44l-1.85,9.77-4.49,13.64Z"/>
    <path class="cls-1" d="M920.73,219.22c0-1.88-.69-3.4-2.07-4.58-1.38-1.17-3.11-2.24-5.19-3.21-2.08-.97-4.34-1.96-6.78-2.99-2.44-1.03-4.69-2.29-6.78-3.78-2.08-1.5-3.81-3.36-5.19-5.59-1.38-2.23-2.07-5.07-2.07-8.54,0-2.99.5-5.59,1.5-7.79,1-2.2,2.42-4.03,4.27-5.5,1.85-1.47,4.03-2.55,6.56-3.26s5.34-1.06,8.45-1.06c3.58,0,6.95.31,10.12.92,3.17.62,5.78,1.51,7.83,2.68l-3.78,10.12c-1.29-.82-3.23-1.57-5.81-2.24-2.58-.67-5.37-1.01-8.36-1.01-2.82,0-4.97.56-6.47,1.67-1.5,1.12-2.24,2.61-2.24,4.49,0,1.76.69,3.23,2.07,4.4,1.38,1.17,3.11,2.26,5.19,3.26,2.08,1,4.34,2.02,6.78,3.08,2.43,1.06,4.69,2.33,6.78,3.83,2.08,1.5,3.81,3.34,5.19,5.54,1.38,2.2,2.07,4.94,2.07,8.23s-.54,6.12-1.63,8.49c-1.09,2.38-2.61,4.36-4.58,5.94-1.97,1.58-4.34,2.76-7.13,3.52-2.79.76-5.85,1.14-9.2,1.14-4.4,0-8.27-.41-11.62-1.23-3.34-.82-5.81-1.64-7.39-2.46l3.87-10.3c.64.35,1.48.73,2.51,1.14,1.03.41,2.18.79,3.48,1.14,1.29.35,2.65.65,4.09.88,1.44.24,2.92.35,4.44.35,3.58,0,6.32-.6,8.23-1.8,1.91-1.2,2.86-3.04,2.86-5.5Z"/>
    <path class="cls-1" d="M983.12,184.9h-17.95v50.86h-12.06v-50.86h-18.04v-10.74h48.05v10.74Z"/>
    <path class="cls-1" d="M987.96,174.78c1.35-.23,2.8-.45,4.36-.66,1.55-.2,3.11-.37,4.66-.48,1.55-.12,3.07-.21,4.53-.26,1.47-.06,2.82-.09,4.05-.09,2.87,0,5.71.26,8.49.79,2.79.53,5.28,1.44,7.48,2.73,2.2,1.29,3.96,3.07,5.28,5.32,1.32,2.26,1.98,5.09,1.98,8.49,0,5.05-1.17,9.15-3.52,12.32-2.35,3.17-5.49,5.37-9.42,6.6l4.31,2.73,14.08,23.5h-13.9l-13.99-24.11-6.34-1.14v25.26h-12.06v-60.98ZM1006.44,184.02c-1.23,0-2.45.03-3.65.09-1.2.06-2.13.18-2.77.35v17.86h5.1c3.34,0,6.01-.76,8.01-2.29,1.99-1.53,2.99-4.05,2.99-7.57,0-2.64-.82-4.71-2.46-6.2s-4.05-2.24-7.22-2.24Z"/>
    <path class="cls-1" d="M1034.69,204.97c0-10.27,2.26-18.17,6.78-23.72,4.52-5.54,10.97-8.32,19.36-8.32,4.4,0,8.24.76,11.53,2.29,3.29,1.53,6.01,3.7,8.18,6.51,2.17,2.82,3.78,6.19,4.84,10.12,1.06,3.93,1.58,8.3,1.58,13.11,0,10.27-2.27,18.17-6.82,23.72-4.55,5.54-10.99,8.32-19.32,8.32-4.46,0-8.33-.76-11.62-2.29-3.29-1.53-6-3.7-8.14-6.51-2.14-2.82-3.74-6.19-4.8-10.12-1.06-3.93-1.58-8.3-1.58-13.11ZM1047.36,204.97c0,3.11.26,5.97.79,8.58.53,2.61,1.33,4.85,2.42,6.73,1.08,1.88,2.48,3.34,4.18,4.4,1.7,1.06,3.72,1.58,6.07,1.58,4.28,0,7.6-1.67,9.94-5.02,2.35-3.34,3.52-8.77,3.52-16.28,0-2.99-.25-5.78-.75-8.36-.5-2.58-1.28-4.84-2.33-6.78-1.06-1.94-2.44-3.45-4.14-4.53-1.7-1.08-3.78-1.63-6.25-1.63-4.28,0-7.6,1.72-9.94,5.15-2.35,3.43-3.52,8.82-3.52,16.15Z"/>
    <path class="cls-1" d="M1094.18,174.17h36.52v10.74h-24.46v15.22h22.53v10.74h-22.53v24.9h-12.06v-61.6Z"/>
    <path class="cls-1" d="M1137.48,174.17h36.52v10.74h-24.46v14.34h22.26v10.74h-22.26v15.05h24.9v10.74h-36.96v-61.6Z"/>
    <path class="cls-1" d="M1182,174.78c1.35-.23,2.8-.45,4.36-.66,1.55-.2,3.11-.37,4.66-.48,1.55-.12,3.07-.21,4.53-.26,1.47-.06,2.82-.09,4.05-.09,2.87,0,5.71.26,8.49.79,2.79.53,5.28,1.44,7.48,2.73,2.2,1.29,3.96,3.07,5.28,5.32,1.32,2.26,1.98,5.09,1.98,8.49,0,5.05-1.17,9.15-3.52,12.32-2.35,3.17-5.49,5.37-9.42,6.6l4.31,2.73,14.08,23.5h-13.9l-13.99-24.11-6.34-1.14v25.26h-12.06v-60.98ZM1200.48,184.02c-1.23,0-2.45.03-3.65.09-1.2.06-2.13.18-2.77.35v17.86h5.1c3.34,0,6.01-.76,8.01-2.29,1.99-1.53,2.99-4.05,2.99-7.57,0-2.64-.82-4.71-2.46-6.2s-4.05-2.24-7.22-2.24Z"/>
  </g>
</svg>